<svg width="24" height="24" viewBox="0 0 24 24" fill="none" xmlns="http://www.w3.org/2000/svg">
<g clip-path="url(#clip0_80_102)">
<path d="M15.8906 19.5H8.10938C7.375 18.9844 6.67969 18.3906 6.02344 17.7188C5.49219 17.9062 4.98438 18 4.5 18C3.25 18 2.1875 17.5586 1.3125 16.6758C0.4375 15.793 0 14.7344 0 13.5C0 12.5156 0.289062 11.6367 0.867188 10.8633C1.44531 10.0898 2.1875 9.54688 3.09375 9.23438C3.10938 9.14062 3.11719 9.0625 3.11719 9H20.8828C20.9609 9.54688 21 10.5469 21 12C21 12.7031 20.8359 13.4375 20.5078 14.2031C20.1797 14.9688 19.75 15.6797 19.2188 16.3359C18.6875 16.9922 18.1445 17.582 17.5898 18.1055C17.0352 18.6289 16.4688 19.0938 15.8906 19.5ZM3 12C3 11.7656 3.00781 11.3984 3.02344 10.8984C2.55469 11.1641 2.18359 11.5273 1.91016 11.9883C1.63672 12.4492 1.5 12.9531 1.5 13.5C1.5 14.3281 1.79297 15.0352 2.37891 15.6211C2.96484 16.207 3.67188 16.5 4.5 16.5C4.5625 16.5 4.6875 16.4844 4.875 16.4531C3.625 14.875 3 13.3906 3 12ZM13.5 4.5C13.5 4.85938 13.5703 5.28906 13.7109 5.78906C14.3203 6.22656 14.7188 6.79688 14.9062 7.5H13.4062C13.375 7.28125 13.3359 7.09375 13.2891 6.9375C12.4297 6.34375 12 5.53125 12 4.5C12 3.67188 12.293 2.96484 12.8789 2.37891C13.4648 1.79297 14.1719 1.5 15 1.5C15.2344 1.5 15.4844 1.53125 15.75 1.59375C15.0938 1.76562 14.5547 2.11719 14.1328 2.64844C13.7109 3.17969 13.5 3.79688 13.5 4.5ZM9 3C9 3.35938 9.07031 3.78906 9.21094 4.28906C10.0703 4.89844 10.5 5.71875 10.5 6.75C10.5 6.96875 10.4609 7.21875 10.3828 7.5H8.90625C8.96875 7.21875 9 6.96875 9 6.75C9 6.375 8.92969 5.9375 8.78906 5.4375C7.92969 4.84375 7.5 4.03125 7.5 3C7.5 2.17188 7.79297 1.46484 8.37891 0.878906C8.96484 0.292969 9.67188 0 10.5 0C10.7344 0 10.9844 0.03125 11.25 0.09375C10.5938 0.265625 10.0547 0.617188 9.63281 1.14844C9.21094 1.67969 9 2.29688 9 3ZM18 24H6C5.14062 24 4.23438 23.832 3.28125 23.4961C2.32812 23.1602 1.54297 22.7539 0.925781 22.2773C0.308594 21.8008 0 21.375 0 21H24C24 21.375 23.6914 21.8008 23.0742 22.2773C22.457 22.7539 21.6719 23.1602 20.7188 23.4961C19.7656 23.832 18.8594 24 18 24Z" fill="#00643C"/>
</g>
<defs>
<clipPath id="clip0_80_102">
<rect width="24" height="24" fill="white"/>
</clipPath>
</defs>
</svg>
