<svg width="27" height="24" viewBox="0 0 27 24" fill="none" xmlns="http://www.w3.org/2000/svg">
<g clip-path="url(#clip0_80_109)">
<path d="M25.4984 7.37969C24.9453 6.87813 24.0828 6.91094 23.5016 7.37969L19.1703 10.8438C18.6406 11.2703 17.9797 11.5 17.2953 11.5H11.75C11.3375 11.5 11 11.1625 11 10.75C11 10.3375 11.3375 10 11.75 10H15.4203C16.1656 10 16.8594 9.48906 16.9813 8.75312C17.1359 7.81562 16.4141 7 15.5 7H8C6.73438 7 5.51094 7.43594 4.52656 8.23281L2.34688 10H-0.25C-0.6625 10 -1 10.3375 -1 10.75V15.25C-1 15.6625 -0.6625 16 -0.25 16H16.475C17.1547 16 17.8156 15.7703 18.35 15.3438L25.4375 9.67188C26.15 9.10469 26.2062 8.01719 25.4984 7.37969Z" fill="#00643C"/>
</g>
<defs>
<clipPath id="clip0_80_109">
<rect width="27" height="24" fill="white"/>
</clipPath>
</defs>
</svg>
