<svg width="24" height="24" viewBox="0 0 24 24" fill="none" xmlns="http://www.w3.org/2000/svg">
<path fill-rule="evenodd" clip-rule="evenodd" d="M21.3337 9.8664C16.1785 4.7112 7.82167 4.7112 2.66647 9.8664C2.44014 10.085 2.13702 10.2059 1.82239 10.2032C1.50775 10.2005 1.20677 10.0743 0.984284 9.85178C0.761795 9.62929 0.635592 9.32831 0.632858 9.01368C0.630124 8.69904 0.751077 8.39592 0.969667 8.1696C7.06087 2.0772 16.9393 2.0772 23.0305 8.1696C23.2491 8.39592 23.37 8.69904 23.3673 9.01368C23.3645 9.32831 23.2383 9.62929 23.0159 9.85178C22.7934 10.0743 22.4924 10.2005 22.1777 10.2032C21.8631 10.2059 21.56 10.085 21.3337 9.8664ZM17.9401 13.26C17.16 12.4799 16.234 11.8611 15.2148 11.4389C14.1956 11.0167 13.1032 10.7994 12.0001 10.7994C10.8969 10.7994 9.80452 11.0167 8.78533 11.4389C7.76614 11.8611 6.84009 12.4799 6.06007 13.26C5.83375 13.4786 5.53062 13.5995 5.21599 13.5968C4.90135 13.5941 4.60037 13.4679 4.37788 13.2454C4.15539 13.0229 4.02919 12.7219 4.02646 12.4073C4.02372 12.0926 4.14468 11.7895 4.36327 11.5632C5.36614 10.5603 6.55673 9.76478 7.86706 9.22202C9.17738 8.67926 10.5818 8.3999 12.0001 8.3999C13.4184 8.3999 14.8228 8.67926 16.1331 9.22202C17.4434 9.76478 18.634 10.5603 19.6369 11.5632C19.8555 11.7895 19.9764 12.0926 19.9737 12.4073C19.9709 12.7219 19.8447 13.0229 19.6222 13.2454C19.3998 13.4679 19.0988 13.5941 18.7841 13.5968C18.4695 13.5995 18.1664 13.4786 17.9401 13.26ZM14.5441 16.656C13.869 15.9811 12.9535 15.602 11.9989 15.602C11.0443 15.602 10.1288 15.9811 9.45367 16.656C9.2285 16.8812 8.9231 17.0077 8.60467 17.0077C8.28623 17.0077 7.98084 16.8812 7.75567 16.656C7.5305 16.4308 7.404 16.1254 7.404 15.807C7.404 15.4886 7.5305 15.1832 7.75567 14.958C8.31284 14.4007 8.97435 13.9586 9.7024 13.657C10.4305 13.3553 11.2108 13.2001 11.9989 13.2001C12.7869 13.2001 13.5673 13.3553 14.2953 13.657C15.0234 13.9586 15.6849 14.4007 16.2421 14.958C16.4672 15.1832 16.5937 15.4886 16.5937 15.807C16.5937 16.1254 16.4672 16.4308 16.2421 16.656C16.0169 16.8812 15.7115 17.0077 15.3931 17.0077C15.0746 17.0077 14.7692 16.8812 14.5441 16.656ZM10.8001 19.2C10.8001 18.8817 10.9265 18.5765 11.1515 18.3515C11.3766 18.1264 11.6818 18 12.0001 18H12.0121C12.3303 18 12.6356 18.1264 12.8606 18.3515C13.0856 18.5765 13.2121 18.8817 13.2121 19.2C13.2121 19.5183 13.0856 19.8235 12.8606 20.0485C12.6356 20.2736 12.3303 20.4 12.0121 20.4H12.0001C11.6818 20.4 11.3766 20.2736 11.1515 20.0485C10.9265 19.8235 10.8001 19.5183 10.8001 19.2Z" fill="#00643C"/>
</svg>
